<svg width="362" height="59" viewBox="0 0 362 59" fill="none" xmlns="http://www.w3.org/2000/svg">
<path d="M0.104 0.759998H10.66L10.544 6.096C12.2067 4.356 14.0627 3.04133 16.112 2.152C18.1613 1.224 20.2687 0.759998 22.434 0.759998C24.754 0.759998 26.8807 1.30133 28.814 2.384C30.786 3.428 32.4873 4.89733 33.918 6.792C35.3487 8.648 36.4507 10.794 37.224 13.23C37.9973 15.666 38.384 18.2567 38.384 21.002C38.384 23.8247 37.9587 26.5893 37.108 29.296C35.3293 34.98 31.598 39.3107 25.914 42.288C20.23 45.2653 12.342 46.754 2.25 46.754L0.104 0.759998ZM9.732 43.506C15.3773 41.65 19.6307 39.4653 22.492 36.952C25.3533 34.4387 27.132 32.0027 27.828 29.644C28.4467 27.5173 28.756 25.2167 28.756 22.742C28.756 20.1513 28.4273 17.6767 27.77 15.318C27.1127 12.9593 26.1847 11.0067 24.986 9.46C23.826 7.91333 22.492 7.04333 20.984 6.85C20.172 6.734 19.3793 6.676 18.606 6.676C17.2527 6.676 15.8993 6.85 14.546 7.198C13.1927 7.50733 11.8393 8.02933 10.486 8.764L9.732 43.506ZM77.8639 29.876C77.8639 32.428 77.3419 34.748 76.2979 36.836C75.2539 38.8853 73.8812 40.6447 72.1799 42.114C70.4785 43.5833 68.6419 44.724 66.6699 45.536C64.6979 46.3093 62.7839 46.696 60.9279 46.696C59.0719 46.696 57.1579 46.3093 55.1859 45.536C53.2139 44.724 51.3579 43.5833 49.6179 42.114C47.9165 40.6447 46.5245 38.8853 45.4419 36.836C44.3979 34.748 43.8759 32.428 43.8759 29.876C43.8759 27.324 44.3979 25.004 45.4419 22.916C46.5245 20.828 47.9165 19.0493 49.6179 17.58C51.3579 16.072 53.2139 14.9313 55.1859 14.158C57.1579 13.346 59.0719 12.94 60.9279 12.94C62.7839 12.94 64.6979 13.346 66.6699 14.158C68.6419 14.9313 70.4785 16.072 72.1799 17.58C73.8812 19.0493 75.2539 20.828 76.2979 22.916C77.3419 25.004 77.8639 27.324 77.8639 29.876ZM62.6679 42.52C64.7172 42.52 66.2832 41.7853 67.3659 40.316C68.4485 38.808 68.9899 36.1013 68.9899 32.196C68.9899 28.716 68.4485 25.874 67.3659 23.67C66.3219 21.466 65.0459 19.8613 63.5379 18.856C62.0299 17.812 60.5799 17.29 59.1879 17.29C57.8345 17.29 56.6745 17.5993 55.7079 18.218C54.7412 18.8367 54.0065 19.9 53.5039 21.408C53.0012 22.8773 52.7499 24.9267 52.7499 27.556C52.7499 29.9147 53.0592 32.022 53.6779 33.878C54.3352 35.734 55.1665 37.3193 56.1719 38.634C57.1772 39.91 58.2405 40.8767 59.3619 41.534C60.5219 42.1913 61.6239 42.52 62.6679 42.52ZM100.838 51.394C102.888 51.394 104.26 51.0653 104.956 50.408C105.652 49.7893 106 48.4747 106 46.464C106 46.232 105.981 46.0193 105.942 45.826C105.942 45.594 105.942 45.3427 105.942 45.072L105.71 39.794C104.202 41.1087 102.366 42.1913 100.2 43.042C98.0736 43.854 95.7729 44.26 93.2982 44.26C90.0116 44.26 87.4016 43.4093 85.4682 41.708C83.5736 39.968 82.6262 37.184 82.6262 33.356C82.6262 30.34 83.4769 27.5947 85.1782 25.12C86.8796 22.6067 89.1996 20.4413 92.1382 18.624C95.1156 16.8067 98.4989 15.4147 102.288 14.448C106.116 13.4427 110.138 12.94 114.352 12.94L113.25 44.376C113.134 47.856 112.748 50.582 112.09 52.554C111.472 54.5647 110.544 55.976 109.306 56.788C108.069 57.6387 106.484 58.064 104.55 58.064C104.048 58.064 103.526 58.0253 102.984 57.948C102.443 57.9093 101.882 57.8513 101.302 57.774C98.8276 57.426 96.0629 56.5947 93.0082 55.28C89.9536 54.004 86.7442 51.858 83.3802 48.842L83.6702 48.378C84.7142 48.7647 85.9709 49.132 87.4402 49.48C88.9482 49.8667 90.4949 50.1953 92.0802 50.466C93.6656 50.7367 95.1349 50.9493 96.4882 51.104C97.8416 51.2587 98.9049 51.3553 99.6782 51.394H100.838ZM104.782 17.174C100.142 18.682 96.7396 20.7313 94.5742 23.322C92.4089 25.874 91.3262 28.832 91.3262 32.196C91.3262 34.4387 91.7709 36.0047 92.6602 36.894C93.5496 37.7833 94.8449 38.228 96.5462 38.228C98.1316 38.228 99.6396 38.054 101.07 37.706C102.501 37.3193 103.99 36.7587 105.536 36.024L104.782 17.174ZM144.987 24.598C143.981 23.5927 142.705 22.5873 141.159 21.582C139.612 20.5767 138.027 19.7067 136.403 18.972C134.817 18.1987 133.425 17.7153 132.227 17.522C131.956 17.4447 131.685 17.406 131.415 17.406C131.144 17.406 130.873 17.406 130.603 17.406C129.404 17.406 128.418 17.6187 127.645 18.044C126.871 18.4693 126.485 19.0107 126.485 19.668C126.485 20.2867 126.871 20.9053 127.645 21.524C128.418 22.104 129.578 22.7807 131.125 23.554C132.71 24.3273 134.45 25.1973 136.345 26.164C138.239 27.092 140.115 28.1167 141.971 29.238C143.827 30.3593 145.451 31.5387 146.843 32.776C148.235 34.0133 149.163 35.328 149.627 36.72C149.975 37.6867 150.149 38.5953 150.149 39.446C150.149 41.6887 149.008 43.4673 146.727 44.782C144.445 46.058 141.062 46.696 136.577 46.696C133.058 46.696 129.791 45.7293 126.775 43.796C123.759 41.8627 121.265 39.3687 119.293 36.314L119.757 35.734C122.154 37.59 124.706 39.0593 127.413 40.142C130.119 41.186 132.768 41.708 135.359 41.708C137.099 41.708 138.452 41.476 139.419 41.012C140.424 40.548 140.927 39.968 140.927 39.272C140.927 39.1173 140.888 38.924 140.811 38.692C140.424 37.6093 139.496 36.5653 138.027 35.56C136.557 34.516 134.817 33.4333 132.807 32.312C130.835 31.152 128.805 29.876 126.717 28.484C124.667 27.0533 122.831 25.4293 121.207 23.612C120.317 22.5293 119.873 21.4273 119.873 20.306C119.873 19.0687 120.317 17.8893 121.207 16.768C122.096 15.6467 123.353 14.738 124.977 14.042C126.601 13.3073 128.495 12.94 130.661 12.94C133.29 12.94 135.784 13.1527 138.143 13.578C140.501 14.0033 142.609 14.564 144.465 15.26C146.359 15.9173 147.848 16.652 148.931 17.464L144.987 24.598ZM174.633 39.91C172.661 42.2687 170.825 44.0087 169.123 45.13C167.461 46.2127 165.953 46.754 164.599 46.754C162.898 46.754 161.545 45.8647 160.539 44.086C159.534 42.2687 158.973 39.6587 158.857 36.256L158.335 20.364H152.129V19.726L166.745 3.602H167.499L166.977 14.738L173.531 12.534V20.364H166.687L165.991 34.98C165.991 35.2507 165.972 35.5213 165.933 35.792C165.933 36.024 165.933 36.2753 165.933 36.546C165.933 38.17 166.127 39.3687 166.513 40.142C166.9 40.8767 167.577 41.244 168.543 41.244C169.819 41.244 171.753 40.606 174.343 39.33L174.633 39.91ZM212.153 41.36C210.375 43.0227 208.809 44.3373 207.455 45.304C206.102 46.2707 204.884 46.754 203.801 46.754C202.951 46.754 202.177 46.4253 201.481 45.768C200.824 45.072 200.205 43.97 199.625 42.462C198.427 43.506 196.957 44.3953 195.217 45.13C193.477 45.826 191.602 46.29 189.591 46.522C188.973 46.5993 188.373 46.6573 187.793 46.696C187.213 46.7347 186.653 46.754 186.111 46.754C180.659 46.754 177.933 44.8013 177.933 40.896C177.933 40.432 177.972 39.9487 178.049 39.446C178.127 38.9433 178.243 38.402 178.397 37.822C178.745 36.546 179.441 35.4053 180.485 34.4C181.568 33.356 182.863 32.428 184.371 31.616C185.879 30.7653 187.426 29.992 189.011 29.296C190.597 28.5613 192.066 27.8847 193.419 27.266C194.811 26.6087 195.933 25.9707 196.783 25.352C197.673 24.7333 198.117 24.1147 198.117 23.496C198.117 21.7947 197.905 20.654 197.479 20.074C197.054 19.4553 196.242 19.146 195.043 19.146C194.193 19.146 192.878 19.2233 191.099 19.378C189.321 19.5327 187.368 19.7647 185.241 20.074C183.115 20.3833 181.085 20.7893 179.151 21.292L178.861 20.712C179.905 19.7067 181.239 18.74 182.863 17.812C184.526 16.884 186.285 16.0527 188.141 15.318C190.036 14.5833 191.911 14.0033 193.767 13.578C195.623 13.1527 197.305 12.94 198.813 12.94C201.211 12.94 202.989 13.1913 204.149 13.694C205.348 14.158 206.141 15.1053 206.527 16.536C206.953 17.928 207.165 20.0353 207.165 22.858V37.532C207.165 38.924 207.281 39.9293 207.513 40.548C207.784 41.128 208.383 41.418 209.311 41.418C209.621 41.418 209.988 41.3793 210.413 41.302C210.877 41.2247 211.38 41.128 211.921 41.012L212.153 41.36ZM198.581 28.542C197.731 29.2767 196.59 30.0693 195.159 30.92C193.767 31.732 192.414 32.6213 191.099 33.588C189.785 34.516 188.818 35.56 188.199 36.72C187.658 37.8027 187.387 38.75 187.387 39.562C187.387 40.3353 187.619 40.9733 188.083 41.476C188.586 41.9787 189.282 42.23 190.171 42.23C190.365 42.23 190.558 42.23 190.751 42.23C190.983 42.1913 191.196 42.1527 191.389 42.114C192.163 41.9207 193.052 41.65 194.057 41.302C195.101 40.954 196.068 40.548 196.957 40.084C197.885 39.62 198.543 39.156 198.929 38.692L198.581 28.542ZM232.528 51.394C234.577 51.394 235.95 51.0653 236.646 50.408C237.342 49.7893 237.69 48.4747 237.69 46.464C237.69 46.232 237.67 46.0193 237.632 45.826C237.632 45.594 237.632 45.3427 237.632 45.072L237.4 39.794C235.892 41.1087 234.055 42.1913 231.89 43.042C229.763 43.854 227.462 44.26 224.988 44.26C221.701 44.26 219.091 43.4093 217.158 41.708C215.263 39.968 214.316 37.184 214.316 33.356C214.316 30.34 215.166 27.5947 216.868 25.12C218.569 22.6067 220.889 20.4413 223.828 18.624C226.805 16.8067 230.188 15.4147 233.978 14.448C237.806 13.4427 241.827 12.94 246.042 12.94L244.94 44.376C244.824 47.856 244.437 50.582 243.78 52.554C243.161 54.5647 242.233 55.976 240.996 56.788C239.758 57.6387 238.173 58.064 236.24 58.064C235.737 58.064 235.215 58.0253 234.674 57.948C234.132 57.9093 233.572 57.8513 232.992 57.774C230.517 57.426 227.752 56.5947 224.698 55.28C221.643 54.004 218.434 51.858 215.07 48.842L215.36 48.378C216.404 48.7647 217.66 49.132 219.13 49.48C220.638 49.8667 222.184 50.1953 223.77 50.466C225.355 50.7367 226.824 50.9493 228.178 51.104C229.531 51.2587 230.594 51.3553 231.368 51.394H232.528ZM236.472 17.174C231.832 18.682 228.429 20.7313 226.264 23.322C224.098 25.874 223.016 28.832 223.016 32.196C223.016 34.4387 223.46 36.0047 224.35 36.894C225.239 37.7833 226.534 38.228 228.236 38.228C229.821 38.228 231.329 38.054 232.76 37.706C234.19 37.3193 235.679 36.7587 237.226 36.024L236.472 17.174ZM256.028 46L253.94 13.694H264.148L263.974 19.436C264.863 18.276 265.946 17.2127 267.222 16.246C268.498 15.2407 269.871 14.448 271.34 13.868C272.848 13.2493 274.356 12.94 275.864 12.94V21.466C275.091 21.0407 274.221 20.7313 273.254 20.538C272.326 20.306 271.359 20.19 270.354 20.19C269.155 20.19 267.976 20.3447 266.816 20.654C265.656 20.9247 264.689 21.3307 263.916 21.872L263.162 46H256.028ZM312.067 41.36C310.289 43.0227 308.723 44.3373 307.369 45.304C306.016 46.2707 304.798 46.754 303.715 46.754C302.865 46.754 302.091 46.4253 301.395 45.768C300.738 45.072 300.119 43.97 299.539 42.462C298.341 43.506 296.871 44.3953 295.131 45.13C293.391 45.826 291.516 46.29 289.505 46.522C288.887 46.5993 288.287 46.6573 287.707 46.696C287.127 46.7347 286.567 46.754 286.025 46.754C280.573 46.754 277.847 44.8013 277.847 40.896C277.847 40.432 277.886 39.9487 277.963 39.446C278.041 38.9433 278.157 38.402 278.311 37.822C278.659 36.546 279.355 35.4053 280.399 34.4C281.482 33.356 282.777 32.428 284.285 31.616C285.793 30.7653 287.34 29.992 288.925 29.296C290.511 28.5613 291.98 27.8847 293.333 27.266C294.725 26.6087 295.847 25.9707 296.697 25.352C297.587 24.7333 298.031 24.1147 298.031 23.496C298.031 21.7947 297.819 20.654 297.393 20.074C296.968 19.4553 296.156 19.146 294.957 19.146C294.107 19.146 292.792 19.2233 291.013 19.378C289.235 19.5327 287.282 19.7647 285.155 20.074C283.029 20.3833 280.999 20.7893 279.065 21.292L278.775 20.712C279.819 19.7067 281.153 18.74 282.777 17.812C284.44 16.884 286.199 16.0527 288.055 15.318C289.95 14.5833 291.825 14.0033 293.681 13.578C295.537 13.1527 297.219 12.94 298.727 12.94C301.125 12.94 302.903 13.1913 304.063 13.694C305.262 14.158 306.055 15.1053 306.441 16.536C306.867 17.928 307.079 20.0353 307.079 22.858V37.532C307.079 38.924 307.195 39.9293 307.427 40.548C307.698 41.128 308.297 41.418 309.225 41.418C309.535 41.418 309.902 41.3793 310.327 41.302C310.791 41.2247 311.294 41.128 311.835 41.012L312.067 41.36ZM298.495 28.542C297.645 29.2767 296.504 30.0693 295.073 30.92C293.681 31.732 292.328 32.6213 291.013 33.588C289.699 34.516 288.732 35.56 288.113 36.72C287.572 37.8027 287.301 38.75 287.301 39.562C287.301 40.3353 287.533 40.9733 287.997 41.476C288.5 41.9787 289.196 42.23 290.085 42.23C290.279 42.23 290.472 42.23 290.665 42.23C290.897 42.1913 291.11 42.1527 291.303 42.114C292.077 41.9207 292.966 41.65 293.971 41.302C295.015 40.954 295.982 40.548 296.871 40.084C297.799 39.62 298.457 39.156 298.843 38.692L298.495 28.542ZM353.844 46L352.916 26.106C352.8 23.786 352.432 22.162 351.814 21.234C351.195 20.2673 350.286 19.784 349.088 19.784C348.198 19.784 347.212 20.0547 346.13 20.596C345.047 21.1373 343.984 21.8527 342.94 22.742C342.901 22.8967 342.882 23.0513 342.882 23.206C342.882 23.3607 342.882 23.5347 342.882 23.728L341.954 46H335.342L334.414 26.106C334.298 23.786 333.872 22.162 333.138 21.234C332.442 20.2673 331.494 19.784 330.296 19.784C329.445 19.784 328.498 20.0353 327.454 20.538C326.41 21.0407 325.385 21.7173 324.38 22.568L323.51 46H316.666L315.158 13.694H324.728L324.496 19.146C326.158 17.1353 328.034 15.608 330.122 14.564C332.21 13.4813 334.259 12.94 336.27 12.94C338.358 12.94 339.924 13.4813 340.968 14.564C342.012 15.608 342.63 17.3287 342.824 19.726C344.525 17.5607 346.458 15.898 348.624 14.738C350.789 13.5393 352.935 12.94 355.062 12.94C357.459 12.94 359.16 13.6553 360.166 15.086C361.21 16.478 361.732 18.7787 361.732 21.988C361.732 22.2587 361.712 22.5487 361.674 22.858C361.674 23.1287 361.674 23.4187 361.674 23.728L360.746 46H353.844Z" fill="black"/>
</svg>
