<svg width="221" height="66" viewBox="0 0 221 66" fill="none" xmlns="http://www.w3.org/2000/svg">
<path d="M14.9443 34.8633C14.9443 36.4681 15.1898 37.6859 15.6807 38.5166C16.1904 39.3285 17.0306 39.7344 18.2012 39.7344C18.9375 39.7344 19.6833 39.4984 20.4385 39.0264C21.1937 38.5544 21.93 37.8841 22.6475 37.0156C23.3649 36.1283 24.0257 35.071 24.6299 33.8438C25.2529 32.5977 25.8005 31.2194 26.2725 29.709C26.7445 28.1797 27.1126 26.5277 27.377 24.7529C27.6413 22.9782 27.7734 21.1279 27.7734 19.2021C27.7734 17.2575 27.5563 15.4167 27.1221 13.6797C26.7067 11.9427 26.0459 10.4323 25.1396 9.14844C24.2523 7.8457 23.11 6.81673 21.7129 6.06152C20.3346 5.30632 18.6826 4.92871 16.7568 4.92871C15.152 4.92871 13.736 5.10807 12.5088 5.4668C11.2816 5.82552 10.2148 6.32585 9.30859 6.96777C8.42122 7.59082 7.66602 8.32715 7.04297 9.17676C6.4388 10.0264 5.94792 10.9421 5.57031 11.9238C5.21159 12.8867 4.95671 13.8968 4.80566 14.9541C4.65462 15.9925 4.5791 17.0215 4.5791 18.041C4.5791 19.4382 4.7207 20.6842 5.00391 21.7793C5.30599 22.8743 5.63639 23.8089 5.99512 24.583C6.37272 25.3382 6.72201 25.9235 7.04297 26.3389C7.38281 26.7542 7.58105 26.9902 7.6377 27.0469C7.95866 26.9525 8.18522 26.9902 8.31738 27.1602C8.44954 27.3301 8.51562 27.5566 8.51562 27.8398C8.51562 28.2174 8.43066 28.6139 8.26074 29.0293C8.1097 29.4258 7.90202 29.7939 7.6377 30.1338C7.37337 30.4548 7.07129 30.7285 6.73145 30.9551C6.41048 31.1628 6.08008 31.2666 5.74023 31.2666C5.58919 31.2666 5.43815 31.2477 5.28711 31.21C5.15495 31.1722 5.01335 31.0967 4.8623 30.9834C4.82454 30.9645 4.68294 30.8324 4.4375 30.5869C4.19206 30.3226 3.88997 29.9544 3.53125 29.4824C3.17253 29.0104 2.78548 28.4251 2.37012 27.7266C1.97363 27.0091 1.59603 26.1878 1.2373 25.2627C0.897461 24.3376 0.614258 23.2992 0.387695 22.1475C0.161133 20.9958 0.0478516 19.7402 0.0478516 18.3809C0.0478516 15.7565 0.444336 13.3493 1.2373 11.1592C2.04915 8.9502 3.19141 7.06217 4.66406 5.49512C6.13672 3.90918 7.91146 2.68197 9.98828 1.81348C12.0651 0.926107 14.3779 0.482422 16.9268 0.482422C19.6266 0.482422 21.9489 1.00163 23.8936 2.04004C25.8571 3.05957 27.4619 4.41895 28.708 6.11816C29.973 7.81738 30.9076 9.76204 31.5117 11.9521C32.1159 14.1423 32.418 16.4079 32.418 18.749C32.418 21.4867 32.2008 24.0166 31.7666 26.3389C31.3512 28.6611 30.7754 30.7663 30.0391 32.6543C29.3216 34.5423 28.4814 36.2132 27.5186 37.667C26.5557 39.1019 25.5361 40.3102 24.46 41.292C23.3838 42.2549 22.2793 42.9818 21.1465 43.4727C20.0137 43.9635 18.9186 44.209 17.8613 44.209C16.502 44.209 15.3408 43.9919 14.3779 43.5576C13.4339 43.1423 12.6693 42.5286 12.084 41.7168C11.4987 40.8861 11.0739 39.876 10.8096 38.6865C10.5452 37.4782 10.4131 36.1094 10.4131 34.5801V12.3486C10.4131 11.8011 10.3753 11.4141 10.2998 11.1875C10.2243 10.9421 10.1865 10.7155 10.1865 10.5078C10.1865 10.2057 10.3376 9.96973 10.6396 9.7998C10.9417 9.611 11.3005 9.5166 11.7158 9.5166C12.6787 9.5166 13.4528 9.77148 14.0381 10.2812C14.6423 10.7721 14.9443 11.3669 14.9443 12.0654V34.8633ZM57.3115 32.4277C57.3493 32.2012 57.472 32.0124 57.6797 31.8613C57.9062 31.7103 58.1611 31.6064 58.4443 31.5498C58.7275 31.4932 59.0202 31.4932 59.3223 31.5498C59.6432 31.6064 59.917 31.7386 60.1436 31.9463C60.389 32.1351 60.5589 32.4089 60.6533 32.7676C60.7666 33.1074 60.7572 33.5511 60.625 34.0986C60.4551 34.8916 60.1719 35.6374 59.7754 36.3359C59.3978 37.0156 58.9163 37.6198 58.3311 38.1484C57.7458 38.6771 57.0566 39.0924 56.2637 39.3945C55.4707 39.6966 54.5833 39.8477 53.6016 39.8477C53.0729 39.8477 52.5726 39.8193 52.1006 39.7627C51.6475 39.7061 51.2038 39.6022 50.7695 39.4512C50.0521 40.6973 49.127 41.6979 47.9941 42.4531C46.8613 43.2272 45.4642 43.6143 43.8027 43.6143C42.3301 43.6143 41.0651 43.3216 40.0078 42.7363C38.9505 42.1699 38.0726 41.3958 37.374 40.4141C36.6755 39.4134 36.1562 38.2617 35.8164 36.959C35.4954 35.6562 35.335 34.278 35.335 32.8242C35.335 30.6908 35.5804 28.7839 36.0713 27.1035C36.5811 25.4043 37.1663 23.9694 37.8271 22.7988C38.488 21.6094 39.1393 20.7031 39.7812 20.0801C40.4421 19.457 40.9329 19.1455 41.2539 19.1455C41.6315 19.1455 41.9714 19.3154 42.2734 19.6553C42.5944 19.9762 42.821 20.3633 42.9531 20.8164C43.1042 21.2507 43.1419 21.6943 43.0664 22.1475C43.0098 22.6006 42.7926 22.9499 42.415 23.1953C42.1885 23.554 41.9147 23.9694 41.5938 24.4414C41.2917 24.9134 40.999 25.5081 40.7158 26.2256C40.4515 26.9242 40.2249 27.7832 40.0361 28.8027C39.8473 29.8223 39.7529 31.0495 39.7529 32.4844C39.7529 33.7116 39.8568 34.7783 40.0645 35.6846C40.291 36.5908 40.5931 37.3555 40.9707 37.9785C41.3672 38.5827 41.8109 39.0358 42.3018 39.3379C42.8115 39.64 43.3496 39.791 43.916 39.791C44.7467 39.791 45.4264 39.5928 45.9551 39.1963C46.5026 38.7809 46.9652 38.2428 47.3428 37.582C45.9834 36.4115 44.945 34.9294 44.2275 33.1357C43.529 31.3232 43.1797 29.3691 43.1797 27.2734C43.1797 26.3672 43.2741 25.5081 43.4629 24.6963C43.6706 23.8656 43.9632 23.1387 44.3408 22.5156C44.7373 21.8926 45.2282 21.4017 45.8135 21.043C46.3988 20.6654 47.0785 20.4766 47.8525 20.4766C48.5322 20.4766 49.1742 20.722 49.7783 21.2129C50.3825 21.7038 50.9111 22.3835 51.3643 23.252C51.8174 24.1204 52.1667 25.1494 52.4121 26.3389C52.6764 27.5283 52.8086 28.8216 52.8086 30.2188C52.8086 31.2949 52.7425 32.3617 52.6104 33.4189C52.4782 34.4762 52.2705 35.4958 51.9873 36.4775C52.195 36.5531 52.3838 36.6003 52.5537 36.6191C52.7425 36.6191 52.9408 36.6191 53.1484 36.6191C53.7715 36.6191 54.319 36.5059 54.791 36.2793C55.2819 36.0527 55.6973 35.7507 56.0371 35.373C56.377 34.9954 56.6507 34.5518 56.8584 34.042C57.0661 33.5322 57.2171 32.9941 57.3115 32.4277ZM46.2383 27.0469C46.2383 28.3496 46.4365 29.5863 46.833 30.7568C47.2484 31.9274 47.7865 32.9469 48.4473 33.8154C48.5605 32.8903 48.6172 32.0029 48.6172 31.1533C48.6172 30.1715 48.5983 29.2653 48.5605 28.4346C48.5417 27.585 48.4756 26.8581 48.3623 26.2539C48.2679 25.6497 48.1263 25.1777 47.9375 24.8379C47.7676 24.4792 47.5316 24.2998 47.2295 24.2998C46.5687 24.2998 46.2383 25.2155 46.2383 27.0469ZM60.8232 59.2188C60.8232 57.7461 61.012 56.4434 61.3896 55.3105C61.7861 54.1777 62.3148 53.1393 62.9756 52.1953C63.6364 51.2513 64.401 50.3639 65.2695 49.5332C66.138 48.7214 67.0537 47.8906 68.0166 47.041V40.9521C67.4313 41.5374 66.7422 42.0283 65.9492 42.4248C65.1751 42.8402 64.2783 43.0479 63.2588 43.0479C62.126 43.0479 61.1253 42.8213 60.2568 42.3682C59.4072 41.915 58.6898 41.3014 58.1045 40.5273C57.5192 39.7344 57.0755 38.8092 56.7734 37.752C56.4902 36.6758 56.3486 35.5241 56.3486 34.2969C56.3486 31.8802 56.7357 29.709 57.5098 27.7832C58.2839 25.8574 59.3128 24.2243 60.5967 22.8838C61.8805 21.5244 63.3438 20.486 64.9863 19.7686C66.6478 19.0511 68.3659 18.6924 70.1406 18.6924C70.9336 18.6924 71.5755 18.9095 72.0664 19.3438C72.5573 19.7591 72.8027 20.3538 72.8027 21.1279C72.8027 21.6188 72.7461 21.9681 72.6328 22.1758C72.5384 22.3646 72.3496 22.459 72.0664 22.459C71.8021 22.459 71.5283 22.4401 71.2451 22.4023C70.9619 22.3646 70.6693 22.3457 70.3672 22.3457C69.2721 22.3457 68.1582 22.5911 67.0254 23.082C65.8926 23.554 64.8636 24.2904 63.9385 25.291C63.0322 26.2728 62.2865 27.5283 61.7012 29.0576C61.1159 30.568 60.8232 32.3711 60.8232 34.4668C60.8232 35.9772 61.1159 37.1478 61.7012 37.9785C62.2865 38.8092 63.0889 39.2246 64.1084 39.2246C64.6937 39.2246 65.2035 39.0547 65.6377 38.7148C66.0719 38.3561 66.4495 37.9124 66.7705 37.3838C67.0915 36.8551 67.3464 36.2793 67.5352 35.6562C67.7428 35.0143 67.9033 34.4007 68.0166 33.8154V27.2734C68.0166 26.7259 67.9694 26.3294 67.875 26.084C67.7995 25.8385 67.7617 25.612 67.7617 25.4043C67.7617 25.1211 67.9128 24.8851 68.2148 24.6963C68.5169 24.5075 68.8757 24.4131 69.291 24.4131C70.2539 24.4131 71.0091 24.668 71.5566 25.1777C72.123 25.6686 72.4062 26.2728 72.4062 26.9902V42.7646C73.4635 41.5941 74.4264 40.263 75.2949 38.7715C76.1823 37.2799 76.9186 35.5335 77.5039 33.5322C77.6927 32.9281 77.9004 32.4938 78.127 32.2295C78.3535 31.9463 78.6178 31.8047 78.9199 31.8047C79.1465 31.8047 79.373 31.8802 79.5996 32.0312C79.8451 32.1634 80.0622 32.3428 80.251 32.5693C80.4587 32.7959 80.6191 33.0508 80.7324 33.334C80.8646 33.6172 80.9307 33.9004 80.9307 34.1836C80.9307 34.2214 80.9307 34.2969 80.9307 34.4102C80.9307 34.5234 80.9118 34.6367 80.874 34.75C80.3831 36.4303 79.8073 37.9219 79.1465 39.2246C78.5046 40.5085 77.8154 41.6602 77.0791 42.6797C76.3428 43.6992 75.5781 44.6055 74.7852 45.3984C73.9922 46.2103 73.1992 46.9561 72.4062 47.6357V57.6611C72.4062 59.1904 72.2269 60.4743 71.8682 61.5127C71.5283 62.57 71.0752 63.4196 70.5088 64.0615C69.9424 64.7223 69.291 65.1943 68.5547 65.4775C67.8372 65.7607 67.1104 65.9023 66.374 65.9023C65.5622 65.9023 64.8164 65.723 64.1367 65.3643C63.457 65.0244 62.8717 64.5524 62.3809 63.9482C61.89 63.3441 61.5029 62.6361 61.2197 61.8242C60.9554 61.0124 60.8232 60.1439 60.8232 59.2188ZM66.374 62.249C66.846 62.249 67.1953 62.0602 67.4219 61.6826C67.6484 61.305 67.7995 60.8613 67.875 60.3516C67.9694 59.8607 68.0166 59.3604 68.0166 58.8506C68.0166 58.3408 68.0166 57.9443 68.0166 57.6611V51.459C67.0726 52.403 66.3079 53.4697 65.7227 54.6592C65.1562 55.8486 64.873 57.3118 64.873 59.0488C64.873 59.9551 65.0052 60.7103 65.2695 61.3145C65.5339 61.9375 65.902 62.249 66.374 62.249ZM81.0723 34.042C80.9212 34.6462 80.638 35.0238 80.2227 35.1748C79.8073 35.307 79.3919 35.2881 78.9766 35.1182C78.5801 34.9482 78.2402 34.6556 77.957 34.2402C77.6927 33.8249 77.6172 33.3717 77.7305 32.8809C78.0137 31.597 78.4196 30.181 78.9482 28.6328C79.4958 27.0658 80.0339 25.5081 80.5625 23.96C80.2793 23.5257 80.0527 23.0915 79.8828 22.6572C79.7129 22.2041 79.6279 21.7321 79.6279 21.2412C79.6279 20.7503 79.8073 20.2406 80.166 19.7119C80.5436 19.1644 80.9873 18.6641 81.4971 18.2109C82.0257 17.7578 82.5638 17.3896 83.1113 17.1064C83.6777 16.8044 84.1592 16.6533 84.5557 16.6533C85.2542 16.6533 85.7734 16.8893 86.1133 17.3613C86.472 17.8333 86.6514 18.4658 86.6514 19.2588C86.6514 19.693 86.5758 20.1273 86.4248 20.5615C86.2926 20.9769 86.1416 21.3734 85.9717 21.751C85.8018 22.1097 85.6413 22.4212 85.4902 22.6855C85.3581 22.9499 85.2826 23.1198 85.2637 23.1953C85.9434 24.4036 86.6514 25.4704 87.3877 26.3955C88.124 27.3206 88.7943 28.2363 89.3984 29.1426C90.0215 30.0488 90.5312 31.0117 90.9277 32.0312C91.3242 33.0508 91.5225 34.2497 91.5225 35.6279C91.5225 35.9678 91.4941 36.3171 91.4375 36.6758C91.3997 37.0345 91.3337 37.3743 91.2393 37.6953C91.9189 37.5632 92.5137 37.3555 93.0234 37.0723C93.5521 36.7891 94.0052 36.4681 94.3828 36.1094C94.7793 35.7318 95.1003 35.3258 95.3457 34.8916C95.61 34.4574 95.8271 34.0042 95.9971 33.5322C96.2048 32.9847 96.4124 32.5882 96.6201 32.3428C96.8278 32.0973 97.0638 31.9746 97.3281 31.9746C97.5736 31.9746 97.819 32.0596 98.0645 32.2295C98.3288 32.3805 98.5553 32.5788 98.7441 32.8242C98.9518 33.0697 99.1123 33.3245 99.2256 33.5889C99.3577 33.8532 99.4238 34.0892 99.4238 34.2969C99.4238 34.5801 99.3483 34.9199 99.1973 35.3164C99.0462 35.7129 98.8385 36.1188 98.5742 36.5342C98.3288 36.9495 98.0456 37.3555 97.7246 37.752C97.4036 38.1296 97.0732 38.46 96.7334 38.7432C95.8271 39.4795 94.7604 40.1025 93.5332 40.6123C92.306 41.1032 90.7861 41.4147 88.9736 41.5469C88.2751 42.151 87.4443 42.6419 86.4814 43.0195C85.5374 43.416 84.4707 43.6143 83.2812 43.6143C82.6771 43.6143 82.054 43.5387 81.4121 43.3877C80.7891 43.2367 80.1849 43.0384 79.5996 42.793C79.0332 42.5664 78.514 42.3115 78.042 42.0283C77.57 41.7451 77.1924 41.4619 76.9092 41.1787C76.1917 40.499 75.7292 39.8193 75.5215 39.1396C75.3138 38.4411 75.2666 37.818 75.3799 37.2705C75.4743 36.723 75.6725 36.2793 75.9746 35.9395C76.2767 35.5807 76.5882 35.4014 76.9092 35.4014C77.098 35.4014 77.3906 35.4863 77.7871 35.6562C78.2025 35.8073 78.6745 36.015 79.2031 36.2793C79.7318 36.5247 80.3076 36.7891 80.9307 37.0723C81.5537 37.3555 82.1768 37.6292 82.7998 37.8936C83.4229 38.139 84.027 38.3467 84.6123 38.5166C85.2165 38.6676 85.764 38.7432 86.2549 38.7432C86.5758 38.3656 86.8685 37.8652 87.1328 37.2422C87.3971 36.6191 87.5293 35.9395 87.5293 35.2031C87.5293 34.2969 87.4066 33.4567 87.1611 32.6826C86.9157 31.9085 86.5947 31.1911 86.1982 30.5303C85.8018 29.8695 85.3486 29.2559 84.8389 28.6895C84.348 28.1042 83.8477 27.5566 83.3379 27.0469C82.8848 28.1608 82.4883 29.2653 82.1484 30.3604C81.8086 31.4365 81.4499 32.6637 81.0723 34.042ZM91.0693 14.7275C91.5036 14.7653 91.985 14.7936 92.5137 14.8125C92.9668 14.8503 93.5143 14.8786 94.1562 14.8975C94.7982 14.8975 95.5156 14.9069 96.3086 14.9258V5.09863C96.3086 4.68327 96.2708 4.35286 96.1953 4.10742C96.1387 3.86198 96.0726 3.67318 95.9971 3.54102C95.9404 3.38997 95.8743 3.27669 95.7988 3.20117C95.7422 3.10677 95.7139 3.01237 95.7139 2.91797C95.7139 2.80469 95.7705 2.71029 95.8838 2.63477C95.9971 2.55924 96.1481 2.49316 96.3369 2.43652C96.5257 2.37988 96.724 2.34212 96.9316 2.32324C97.1582 2.28548 97.3753 2.2666 97.583 2.2666C98.5459 2.2666 99.3011 2.52148 99.8486 3.03125C100.415 3.52214 100.698 4.11686 100.698 4.81543V14.9824C102.473 14.9824 104.342 14.9635 106.306 14.9258C108.288 14.888 110.271 14.8219 112.253 14.7275C112.517 14.4443 112.725 14.3405 112.876 14.416C113.046 14.4915 113.15 14.6709 113.188 14.9541C113.244 15.2373 113.254 15.5866 113.216 16.002C113.178 16.4173 113.103 16.8232 112.989 17.2197C112.876 17.5973 112.715 17.9277 112.508 18.2109C112.319 18.4941 112.102 18.6357 111.856 18.6357C109.534 18.6924 107.476 18.7301 105.683 18.749C103.908 18.749 102.246 18.749 100.698 18.749V37.1289C100.698 38.0729 100.878 38.7526 101.236 39.168C101.595 39.5833 102.076 39.791 102.681 39.791C103.266 39.791 103.766 39.5833 104.182 39.168C104.616 38.7526 104.984 38.2334 105.286 37.6104C105.607 36.9873 105.862 36.3171 106.051 35.5996C106.258 34.8633 106.428 34.1742 106.561 33.5322C106.674 32.9281 106.863 32.4938 107.127 32.2295C107.391 31.9463 107.665 31.8047 107.948 31.8047C108.175 31.8047 108.411 31.8802 108.656 32.0312C108.902 32.1634 109.119 32.3428 109.308 32.5693C109.515 32.7959 109.676 33.0508 109.789 33.334C109.921 33.6172 109.987 33.9004 109.987 34.1836C109.987 34.2214 109.987 34.2686 109.987 34.3252C109.987 34.3818 109.968 34.4668 109.931 34.5801C109.685 35.543 109.345 36.5531 108.911 37.6104C108.496 38.6676 107.948 39.64 107.269 40.5273C106.608 41.4147 105.815 42.151 104.89 42.7363C103.965 43.3216 102.879 43.6143 101.633 43.6143C100.859 43.6143 100.141 43.4915 99.4805 43.2461C98.8385 43.0195 98.2816 42.6419 97.8096 42.1133C97.3376 41.6035 96.9694 40.9427 96.7051 40.1309C96.4408 39.319 96.3086 38.3372 96.3086 37.1855V18.749C95.6667 18.749 95.0908 18.749 94.5811 18.749C94.0902 18.7301 93.6748 18.7113 93.335 18.6924C92.9385 18.6735 92.5892 18.6546 92.2871 18.6357C91.834 18.6357 91.4375 18.4375 91.0977 18.041C90.7389 17.6257 90.4935 17.1725 90.3613 16.6816C90.2103 16.1908 90.1914 15.7471 90.3047 15.3506C90.3991 14.9352 90.654 14.7275 91.0693 14.7275ZM123.241 39.791C123.826 39.791 124.327 39.5833 124.742 39.168C125.176 38.7526 125.545 38.2334 125.847 37.6104C126.168 36.9873 126.423 36.3171 126.611 35.5996C126.819 34.8633 126.989 34.1742 127.121 33.5322C127.253 32.9281 127.442 32.4938 127.688 32.2295C127.952 31.9463 128.235 31.8047 128.537 31.8047C128.764 31.8047 128.99 31.8802 129.217 32.0312C129.462 32.1634 129.679 32.3428 129.868 32.5693C130.076 32.7959 130.236 33.0508 130.35 33.334C130.482 33.6172 130.548 33.9004 130.548 34.1836C130.548 34.2214 130.548 34.2686 130.548 34.3252C130.548 34.3818 130.529 34.4668 130.491 34.5801C130.246 35.543 129.906 36.5531 129.472 37.6104C129.056 38.6676 128.518 39.64 127.857 40.5273C127.197 41.4147 126.394 42.151 125.45 42.7363C124.525 43.3216 123.439 43.6143 122.193 43.6143C121.174 43.6143 120.286 43.3971 119.531 42.9629C118.776 42.5286 118.181 41.9528 117.747 41.2354C117.162 41.8962 116.454 42.4531 115.623 42.9062C114.811 43.3783 113.858 43.6143 112.763 43.6143C111.63 43.6143 110.629 43.3877 109.761 42.9346C108.911 42.4814 108.194 41.8678 107.608 41.0938C107.023 40.3008 106.579 39.3757 106.277 38.3184C105.994 37.2422 105.853 36.0905 105.853 34.8633C105.853 32.4466 106.24 30.2754 107.014 28.3496C107.788 26.4238 108.817 24.7907 110.101 23.4502C111.384 22.0908 112.848 21.0524 114.49 20.335C116.152 19.6175 117.87 19.2588 119.645 19.2588C120.438 19.2588 121.079 19.4759 121.57 19.9102C122.061 20.3444 122.307 20.9391 122.307 21.6943C122.307 22.1852 122.25 22.5345 122.137 22.7422C122.042 22.931 121.854 23.0254 121.57 23.0254C121.306 23.0254 121.032 23.0065 120.749 22.9688C120.466 22.931 120.173 22.9121 119.871 22.9121C118.776 22.9121 117.662 23.1576 116.529 23.6484C115.396 24.1204 114.368 24.8568 113.442 25.8574C112.536 26.8392 111.79 28.0947 111.205 29.624C110.62 31.1344 110.327 32.9375 110.327 35.0332C110.327 36.5625 110.62 37.7425 111.205 38.5732C111.79 39.3851 112.593 39.791 113.612 39.791C114.405 39.791 115.066 39.4984 115.595 38.9131C116.123 38.3089 116.548 37.6009 116.869 36.7891V27.8398C116.869 27.5566 116.85 27.3206 116.812 27.1318C116.794 26.943 116.765 26.7826 116.728 26.6504C116.709 26.5182 116.69 26.4049 116.671 26.3105C116.652 26.1973 116.643 26.0934 116.643 25.999C116.643 25.6969 116.784 25.4609 117.067 25.291C117.369 25.1022 117.728 25.0078 118.144 25.0078C119.106 25.0078 119.871 25.2627 120.438 25.7725C121.004 26.2633 121.287 26.8581 121.287 27.5566V37.1289C121.287 37.4499 121.325 37.7708 121.4 38.0918C121.476 38.3939 121.589 38.6771 121.74 38.9414C121.891 39.1868 122.09 39.3945 122.335 39.5645C122.599 39.7155 122.901 39.791 123.241 39.791ZM130.888 59.2188C130.888 57.7461 131.076 56.4434 131.454 55.3105C131.851 54.1777 132.379 53.1393 133.04 52.1953C133.701 51.2513 134.465 50.3639 135.334 49.5332C136.202 48.7214 137.118 47.8906 138.081 47.041V40.9521C137.496 41.5374 136.807 42.0283 136.014 42.4248C135.24 42.8402 134.343 43.0479 133.323 43.0479C132.19 43.0479 131.19 42.8213 130.321 42.3682C129.472 41.915 128.754 41.3014 128.169 40.5273C127.584 39.7344 127.14 38.8092 126.838 37.752C126.555 36.6758 126.413 35.5241 126.413 34.2969C126.413 31.8802 126.8 29.709 127.574 27.7832C128.348 25.8574 129.377 24.2243 130.661 22.8838C131.945 21.5244 133.408 20.486 135.051 19.7686C136.712 19.0511 138.43 18.6924 140.205 18.6924C140.998 18.6924 141.64 18.9095 142.131 19.3438C142.622 19.7591 142.867 20.3538 142.867 21.1279C142.867 21.6188 142.811 21.9681 142.697 22.1758C142.603 22.3646 142.414 22.459 142.131 22.459C141.867 22.459 141.593 22.4401 141.31 22.4023C141.026 22.3646 140.734 22.3457 140.432 22.3457C139.337 22.3457 138.223 22.5911 137.09 23.082C135.957 23.554 134.928 24.2904 134.003 25.291C133.097 26.2728 132.351 27.5283 131.766 29.0576C131.18 30.568 130.888 32.3711 130.888 34.4668C130.888 35.9772 131.18 37.1478 131.766 37.9785C132.351 38.8092 133.153 39.2246 134.173 39.2246C134.758 39.2246 135.268 39.0547 135.702 38.7148C136.136 38.3561 136.514 37.9124 136.835 37.3838C137.156 36.8551 137.411 36.2793 137.6 35.6562C137.807 35.0143 137.968 34.4007 138.081 33.8154V27.2734C138.081 26.7259 138.034 26.3294 137.939 26.084C137.864 25.8385 137.826 25.612 137.826 25.4043C137.826 25.1211 137.977 24.8851 138.279 24.6963C138.581 24.5075 138.94 24.4131 139.355 24.4131C140.318 24.4131 141.074 24.668 141.621 25.1777C142.188 25.6686 142.471 26.2728 142.471 26.9902V42.7646C143.528 41.5941 144.491 40.263 145.359 38.7715C146.247 37.2799 146.983 35.5335 147.568 33.5322C147.757 32.9281 147.965 32.4938 148.191 32.2295C148.418 31.9463 148.682 31.8047 148.984 31.8047C149.211 31.8047 149.438 31.8802 149.664 32.0312C149.91 32.1634 150.127 32.3428 150.315 32.5693C150.523 32.7959 150.684 33.0508 150.797 33.334C150.929 33.6172 150.995 33.9004 150.995 34.1836C150.995 34.2214 150.995 34.2969 150.995 34.4102C150.995 34.5234 150.976 34.6367 150.938 34.75C150.448 36.4303 149.872 37.9219 149.211 39.2246C148.569 40.5085 147.88 41.6602 147.144 42.6797C146.407 43.6992 145.643 44.6055 144.85 45.3984C144.057 46.2103 143.264 46.9561 142.471 47.6357V57.6611C142.471 59.1904 142.291 60.4743 141.933 61.5127C141.593 62.57 141.14 63.4196 140.573 64.0615C140.007 64.7223 139.355 65.1943 138.619 65.4775C137.902 65.7607 137.175 65.9023 136.438 65.9023C135.627 65.9023 134.881 65.723 134.201 65.3643C133.521 65.0244 132.936 64.5524 132.445 63.9482C131.954 63.3441 131.567 62.6361 131.284 61.8242C131.02 61.0124 130.888 60.1439 130.888 59.2188ZM136.438 62.249C136.91 62.249 137.26 62.0602 137.486 61.6826C137.713 61.305 137.864 60.8613 137.939 60.3516C138.034 59.8607 138.081 59.3604 138.081 58.8506C138.081 58.3408 138.081 57.9443 138.081 57.6611V51.459C137.137 52.403 136.372 53.4697 135.787 54.6592C135.221 55.8486 134.938 57.3118 134.938 59.0488C134.938 59.9551 135.07 60.7103 135.334 61.3145C135.598 61.9375 135.966 62.249 136.438 62.249ZM160.482 43.6143C159.803 43.6143 159.104 43.5104 158.387 43.3027C157.688 43.0951 157.046 42.7363 156.461 42.2266C155.895 41.7168 155.423 41.0465 155.045 40.2158C154.686 39.3662 154.507 38.2995 154.507 37.0156C154.507 35.1465 154.752 33.1735 155.243 31.0967C155.753 29.001 156.48 26.6976 157.424 24.1865H153.006H152.354C152.336 24.7529 152.298 25.4704 152.241 26.3389C152.203 27.2074 152.128 28.1325 152.015 29.1143C151.901 30.096 151.75 31.0872 151.562 32.0879C151.392 33.0885 151.174 34.0137 150.91 34.8633C150.721 35.4674 150.419 35.8167 150.004 35.9111C149.607 36.0055 149.211 35.9395 148.814 35.7129C148.418 35.4674 148.097 35.1182 147.852 34.665C147.606 34.2119 147.549 33.7399 147.682 33.249C147.833 32.6637 147.965 31.9557 148.078 31.125C148.191 30.2754 148.276 29.388 148.333 28.4629C148.409 27.5189 148.465 26.5843 148.503 25.6592C148.541 24.7152 148.569 23.875 148.588 23.1387C147.87 22.7422 147.276 22.2419 146.804 21.6377C146.332 21.0146 146.096 20.2783 146.096 19.4287C146.096 19.0322 146.171 18.6735 146.322 18.3525C146.492 18.0127 146.709 17.7295 146.974 17.5029C147.238 17.2575 147.549 17.0781 147.908 16.9648C148.267 16.8327 148.635 16.7666 149.013 16.7666C149.353 16.7666 149.702 16.8138 150.061 16.9082C150.438 17.0026 150.787 17.1725 151.108 17.418C151.448 17.6634 151.75 17.9844 152.015 18.3809C152.279 18.7773 152.496 19.2682 152.666 19.8535C153.138 19.9102 153.535 19.9574 153.855 19.9951C154.195 20.014 154.479 20.0329 154.705 20.0518C154.932 20.0706 155.12 20.0801 155.271 20.0801C155.423 20.0801 155.574 20.0801 155.725 20.0801H158.755C158.925 20.0801 159.17 20.1839 159.491 20.3916C159.831 20.5993 160.161 20.873 160.482 21.2129C160.803 21.5339 161.068 21.8831 161.275 22.2607C161.502 22.6383 161.587 22.9971 161.53 23.3369C161.53 23.4502 161.464 23.724 161.332 24.1582C161.2 24.5924 161.039 25.14 160.851 25.8008C160.662 26.4616 160.454 27.2262 160.228 28.0947C160.001 28.9443 159.793 29.8411 159.604 30.7852C159.416 31.7292 159.255 32.7109 159.123 33.7305C158.991 34.7311 158.925 35.7129 158.925 36.6758C158.925 37.0723 158.972 37.4593 159.066 37.8369C159.161 38.2145 159.302 38.5544 159.491 38.8564C159.68 39.1396 159.916 39.3662 160.199 39.5361C160.501 39.7061 160.851 39.791 161.247 39.791C161.908 39.791 162.474 39.5833 162.946 39.168C163.418 38.7526 163.815 38.2334 164.136 37.6104C164.457 36.9873 164.712 36.3171 164.9 35.5996C165.108 34.8633 165.278 34.1742 165.41 33.5322C165.523 32.9281 165.712 32.4938 165.977 32.2295C166.241 31.9463 166.515 31.8047 166.798 31.8047C167.024 31.8047 167.26 31.8802 167.506 32.0312C167.751 32.1634 167.968 32.3428 168.157 32.5693C168.365 32.7959 168.525 33.0508 168.639 33.334C168.771 33.6172 168.837 33.9004 168.837 34.1836C168.837 34.278 168.827 34.3535 168.809 34.4102C168.79 34.4668 168.78 34.5234 168.78 34.5801C168.516 35.543 168.167 36.5531 167.732 37.6104C167.317 38.6676 166.779 39.64 166.118 40.5273C165.457 41.4147 164.664 42.151 163.739 42.7363C162.814 43.3216 161.729 43.6143 160.482 43.6143ZM182.091 39.791C182.676 39.791 183.176 39.5833 183.592 39.168C184.026 38.7526 184.394 38.2334 184.696 37.6104C185.017 36.9873 185.272 36.3171 185.461 35.5996C185.669 34.8633 185.839 34.1742 185.971 33.5322C186.103 32.9281 186.292 32.4938 186.537 32.2295C186.801 31.9463 187.085 31.8047 187.387 31.8047C187.613 31.8047 187.84 31.8802 188.066 32.0312C188.312 32.1634 188.529 32.3428 188.718 32.5693C188.925 32.7959 189.086 33.0508 189.199 33.334C189.331 33.6172 189.397 33.9004 189.397 34.1836C189.397 34.2214 189.397 34.2686 189.397 34.3252C189.397 34.3818 189.379 34.4668 189.341 34.5801C189.095 35.543 188.756 36.5531 188.321 37.6104C187.906 38.6676 187.368 39.64 186.707 40.5273C186.046 41.4147 185.244 42.151 184.3 42.7363C183.375 43.3216 182.289 43.6143 181.043 43.6143C180.023 43.6143 179.136 43.3971 178.381 42.9629C177.626 42.5286 177.031 41.9528 176.597 41.2354C176.011 41.8962 175.303 42.4531 174.473 42.9062C173.661 43.3783 172.707 43.6143 171.612 43.6143C170.479 43.6143 169.479 43.3877 168.61 42.9346C167.761 42.4814 167.043 41.8678 166.458 41.0938C165.873 40.3008 165.429 39.3757 165.127 38.3184C164.844 37.2422 164.702 36.0905 164.702 34.8633C164.702 32.4466 165.089 30.2754 165.863 28.3496C166.637 26.4238 167.666 24.7907 168.95 23.4502C170.234 22.0908 171.697 21.0524 173.34 20.335C175.001 19.6175 176.719 19.2588 178.494 19.2588C179.287 19.2588 179.929 19.4759 180.42 19.9102C180.911 20.3444 181.156 20.9391 181.156 21.6943C181.156 22.1852 181.1 22.5345 180.986 22.7422C180.892 22.931 180.703 23.0254 180.42 23.0254C180.156 23.0254 179.882 23.0065 179.599 22.9688C179.315 22.931 179.023 22.9121 178.721 22.9121C177.626 22.9121 176.512 23.1576 175.379 23.6484C174.246 24.1204 173.217 24.8568 172.292 25.8574C171.386 26.8392 170.64 28.0947 170.055 29.624C169.469 31.1344 169.177 32.9375 169.177 35.0332C169.177 36.5625 169.469 37.7425 170.055 38.5732C170.64 39.3851 171.442 39.791 172.462 39.791C173.255 39.791 173.916 39.4984 174.444 38.9131C174.973 38.3089 175.398 37.6009 175.719 36.7891V27.8398C175.719 27.5566 175.7 27.3206 175.662 27.1318C175.643 26.943 175.615 26.7826 175.577 26.6504C175.558 26.5182 175.539 26.4049 175.521 26.3105C175.502 26.1973 175.492 26.0934 175.492 25.999C175.492 25.6969 175.634 25.4609 175.917 25.291C176.219 25.1022 176.578 25.0078 176.993 25.0078C177.956 25.0078 178.721 25.2627 179.287 25.7725C179.854 26.2633 180.137 26.8581 180.137 27.5566V37.1289C180.137 37.4499 180.174 37.7708 180.25 38.0918C180.326 38.3939 180.439 38.6771 180.59 38.9414C180.741 39.1868 180.939 39.3945 181.185 39.5645C181.449 39.7155 181.751 39.791 182.091 39.791ZM220.861 34.5801C220.597 35.543 220.248 36.5531 219.813 37.6104C219.398 38.6676 218.86 39.64 218.199 40.5273C217.538 41.4147 216.745 42.151 215.82 42.7363C214.895 43.3216 213.81 43.6143 212.563 43.6143C211.789 43.6143 211.1 43.4632 210.496 43.1611C209.911 42.8779 209.401 42.4909 208.967 42C208.551 41.5091 208.23 40.9333 208.004 40.2725C207.796 39.6117 207.692 38.9131 207.692 38.1768V26.3955C207.692 25.9424 207.683 25.5176 207.664 25.1211C207.645 24.7246 207.598 24.3753 207.522 24.0732C207.447 23.7712 207.334 23.5352 207.183 23.3652C207.05 23.1764 206.862 23.082 206.616 23.082C206.22 23.082 205.738 23.3652 205.172 23.9316C204.605 24.498 204.058 25.2344 203.529 26.1406C203.001 27.0469 202.529 28.0758 202.113 29.2275C201.698 30.3604 201.452 31.5026 201.377 32.6543V41.1221C201.377 41.4053 201.368 41.6979 201.349 42C201.349 42.2832 201.292 42.5381 201.179 42.7646C201.084 43.0101 200.924 43.2083 200.697 43.3594C200.49 43.5293 200.178 43.6143 199.763 43.6143C199.479 43.6143 199.168 43.5765 198.828 43.501C198.507 43.4443 198.205 43.3216 197.922 43.1328C197.658 42.9629 197.431 42.708 197.242 42.3682C197.072 42.0472 196.987 41.613 196.987 41.0654V26.3955C196.987 25.9424 196.968 25.5176 196.931 25.1211C196.912 24.7246 196.865 24.3753 196.789 24.0732C196.714 23.7712 196.6 23.5352 196.449 23.3652C196.317 23.1764 196.128 23.082 195.883 23.082C195.486 23.082 195.005 23.3652 194.438 23.9316C193.891 24.498 193.343 25.2344 192.796 26.1406C192.267 27.0469 191.795 28.0758 191.38 29.2275C190.983 30.3604 190.738 31.5026 190.644 32.6543V41.1221C190.644 41.4053 190.634 41.6979 190.615 42C190.615 42.2832 190.559 42.5381 190.445 42.7646C190.351 43.0101 190.19 43.2083 189.964 43.3594C189.756 43.5293 189.445 43.6143 189.029 43.6143C188.746 43.6143 188.435 43.5765 188.095 43.501C187.774 43.4443 187.472 43.3216 187.188 43.1328C186.924 42.9629 186.698 42.708 186.509 42.3682C186.339 42.0472 186.254 41.613 186.254 41.0654V22.6855C186.254 22.138 186.207 21.7415 186.112 21.4961C186.037 21.2507 185.999 21.0241 185.999 20.8164C185.999 20.5332 186.15 20.3066 186.452 20.1367C186.754 19.9479 187.113 19.8535 187.528 19.8535C188.491 19.8535 189.246 20.1084 189.794 20.6182C190.36 21.109 190.644 21.7038 190.644 22.4023V24.8379C191.021 24.0449 191.427 23.3086 191.861 22.6289C192.314 21.9492 192.796 21.3639 193.306 20.873C193.815 20.3633 194.354 19.9668 194.92 19.6836C195.505 19.4004 196.128 19.2588 196.789 19.2588C197.658 19.2588 198.375 19.4193 198.941 19.7402C199.527 20.0612 199.989 20.486 200.329 21.0146C200.688 21.5433 200.943 22.138 201.094 22.7988C201.245 23.4408 201.339 24.0827 201.377 24.7246C201.736 23.9505 202.132 23.2331 202.566 22.5723C203.001 21.9115 203.473 21.3356 203.982 20.8447C204.492 20.3538 205.03 19.9668 205.597 19.6836C206.182 19.4004 206.805 19.2588 207.466 19.2588C208.41 19.2588 209.184 19.4382 209.788 19.7969C210.392 20.1556 210.864 20.6182 211.204 21.1846C211.544 21.751 211.78 22.3835 211.912 23.082C212.044 23.7806 212.11 24.4603 212.11 25.1211V37.1289C212.11 37.2611 212.12 37.4782 212.139 37.7803C212.158 38.0635 212.214 38.3561 212.309 38.6582C212.403 38.9603 212.545 39.2246 212.733 39.4512C212.941 39.6777 213.234 39.791 213.611 39.791C214.197 39.791 214.697 39.5833 215.112 39.168C215.547 38.7526 215.915 38.2334 216.217 37.6104C216.538 36.9873 216.802 36.3171 217.01 35.5996C217.217 34.8633 217.387 34.1742 217.52 33.5322C217.633 32.9281 217.812 32.4938 218.058 32.2295C218.322 31.9463 218.605 31.8047 218.907 31.8047C219.134 31.8047 219.36 31.8802 219.587 32.0312C219.832 32.1634 220.049 32.3428 220.238 32.5693C220.446 32.7959 220.606 33.0508 220.72 33.334C220.852 33.6172 220.918 33.9004 220.918 34.1836C220.918 34.2214 220.918 34.2686 220.918 34.3252C220.918 34.3818 220.899 34.4668 220.861 34.5801Z" fill="black"/>
</svg>
